# xmcd CD database file
#
# Track frame offsets:
#	182
#	17220
#	42232
#	60475
#	74312
#	99592
#	112747
#	131110
#	147500
#	173362
#	186717
#	205395
#
# Disc length: 2993 seconds
#
# Revision: 0
# Processed by: cddbd v1.5.1PL0 Copyright (c) Steve Scherf et al.
# Submitted via: CDex 1.51
#
DISCID=af0baf0c
DTITLE=Oscar D'Leon - Exitos de Oscar D'Leon con La Critica
DYEAR=1996
DGENRE=Salsa
TTITLE0=A El
TTITLE1=Se necesita rumbero
TTITLE2=Pregones de San Cristobal
TTITLE3=Olvidame
TTITLE4=Madre
TTITLE5=Sonero
TTITLE6=Monta mi caballo
TTITLE7=Cuidate Bien
TTITLE8=Prueba Candela
TTITLE9=La Merenguerita
TTITLE10=Rumba RUmbero
TTITLE11=Cruel Desilucion
EXTD=YEAR: 1996
EXTT0=
EXTT1=
EXTT2=
EXTT3=
EXTT4=
EXTT5=
EXTT6=
EXTT7=
EXTT8=
EXTT9=
EXTT10=
EXTT11=
PLAYORDER=
